# xmcd
#
# Track frame offsets:
# 172
# 31585
# 55350
# 64762
# 88545
# 102217
# 127097
# 150420
# 165905
# 195367
# 207832
# 231185
#
# Disc length: 3433 seconds
#
#
# Revision: 0
# Processed by: cddbd v1.5.1PL2 Copyright (c) Steve Scherf et al.
# Submitted via: FreeRIP 2.944 
#
DISCID=8e0d670c
DTITLE=Lightnin' Hopkins - The Best of Lightnin' Hopkins
DYEAR=1900
DGENRE=blues
TTITLE0=Big Black Cadillac Blues
TTITLE1=Early In The Mornin' Blues
TTITLE2=Coffee House Blues
TTITLE3=I've Been 'Buked and Scorned
TTITLE4=Stool Pidgeon Blues
TTITLE5=Brand New Car
TTITLE6=Drinkin' In The Blues
TTITLE7=Ball of Twine
TTITLE8=Everybody's Blue
TTITLE9=Right On That Shore
TTITLE10=Chain Gang Blues
TTITLE11=Blowin' The Fuses
EXTD=
EXTT0=
EXTT1=
EXTT2=
EXTT3=
EXTT4=
EXTT5=
EXTT6=
EXTT7=
EXTT8=
EXTT9=
EXTT10=
EXTT11=
PLAYORDER=
